Coordinates
version=1
nRows=10
nColumns=40
inDegrees=yes

Units are S.I. units (second, meters, Newtons, ...)
If the header above contains a line with 'inDegrees', this indicates whether rotational values are in degrees (yes) or radians (no).

endheader
time	pelvis_tilt	pelvis_list	pelvis_rotation	pelvis_tx	pelvis_ty	pelvis_tz	hip_flexion_r	hip_adduction_r	hip_rotation_r	knee_angle_r	knee_angle_r_beta	ankle_angle_r	subtalar_angle_r	mtp_angle_r	hip_flexion_l	hip_adduction_l	hip_rotation_l	knee_angle_l	knee_angle_l_beta	ankle_angle_l	subtalar_angle_l	mtp_angle_l	lumbar_extension	lumbar_bending	lumbar_rotation	arm_flex_r	arm_add_r	arm_rot_r	elbow_flex_r	pro_sup_r	wrist_flex_r	wrist_dev_r	arm_flex_l	arm_add_l	arm_rot_l	elbow_flex_l	pro_sup_l	wrist_flex_l	wrist_dev_l
      8.80000000	     21.18919340	     -9.88878940	    177.95462110	      0.38754144	      0.79844178	     -0.60152394	     79.55002121	    -10.71645319	     10.65988073	     72.57691165	      1.26670607	     20.23038184	      0.00000000	      0.00000000	     70.97204761	    -12.43187630	    -15.58796159	     69.97631748	      1.22131714	     14.85129539	      0.00000000	      0.00000000	    -67.85490136	     -8.83450448	    -22.45141203	     72.21315700	      5.07954106	     24.60272388	     13.97947111	     88.04248924	      0.00000000	      0.00000000	    -89.72742051	   -119.91318976	    -83.46967965	     65.38901940	     78.38303128	      0.00000000	      0.00000000
      8.80500000	     27.73696128	      1.54399759	    179.59539582	      0.39171469	      0.77756620	     -0.58633984	     83.55368229	     -9.29053560	     -0.72037966	     71.97136000	      1.25613720	     20.05581573	      0.00000000	      0.00000000	     84.62535623	    -14.63502874	     -2.67078626	     74.33440061	      1.29738004	     14.08551754	      0.00000000	      0.00000000	    -57.74536569	      0.43555894	     -1.40550010	     67.20112951	     -8.98824172	     24.50766133	     19.30602457	     88.23075309	      0.00000000	      0.00000000	     61.77720338	    -17.80467658	     27.11162071	     28.89833681	     88.20589722	      0.00000000	      0.00000000
      8.81000000	     27.72460160	      1.55516924	    179.55884872	      0.39171890	      0.77773194	     -0.58629937	     83.52531694	     -9.21977425	     -0.66895464	     71.93664883	      1.25553137	     20.03266319	      0.00000000	      0.00000000	     84.59282614	    -14.67060383	     -2.69938374	     74.31092800	      1.29697036	     14.10456370	      0.00000000	      0.00000000	    -57.73621991	      0.42232715	     -1.38180478	     67.19657067	     -8.99565940	     24.53485168	     19.30014617	     88.23010030	      0.00000000	      0.00000000	     61.75302572	    -17.79403064	     27.11247676	     28.89592428	     88.20187212	      0.00000000	      0.00000000
      8.81500000	     27.73426570	      1.52651127	    179.58410768	      0.39177562	      0.77803530	     -0.58610489	     83.51239099	     -9.34420472	     -0.77976610	     71.88232909	      1.25458332	     19.96536014	      0.00000000	      0.00000000	     84.54920786	    -14.58287956	     -2.68087362	     74.22797371	      1.29552254	     14.09196131	      0.00000000	      0.00000000	    -57.71872683	      0.43525397	     -1.41902222	     67.20281931	     -8.98921387	     24.58403209	     19.27550503	     88.22843467	      0.00000000	      0.00000000	     61.76201072	    -17.77017417	     27.10447603	     28.88281637	     88.19649826	      0.00000000	      0.00000000
      8.82000000	     27.72381330	      1.54661432	    179.54728351	      0.39180414	      0.77817273	     -0.58627659	     83.48406202	     -9.24731699	     -0.72370190	     71.85205717	      1.25405497	     19.91990025	      0.00000000	      0.00000000	     84.52517502	    -14.64254363	     -2.68265467	     74.20534679	      1.29512762	     14.11212994	      0.00000000	      0.00000000	    -57.70428218	      0.41470531	     -1.38390655	     67.19174346	     -8.97612556	     24.60849651	     19.25561972	     88.22803497	      0.00000000	      0.00000000	     61.75257835	    -17.75840921	     27.09716851	     28.86528673	     88.19472347	      0.00000000	      0.00000000
      8.82500000	     27.72756625	      1.52993941	    179.58134611	      0.39184971	      0.77841181	     -0.58594661	     83.46354033	     -9.34838679	     -0.77987190	     71.80269772	      1.25319349	     19.91160672	      0.00000000	      0.00000000	     84.49354109	    -14.51293746	     -2.61709507	     74.15634397	      1.29427236	     14.08543888	      0.00000000	      0.00000000	    -57.68488648	      0.46650688	     -1.41022037	     67.19504512	     -8.98286486	     24.64113524	     19.21979256	     88.22629797	      0.00000000	      0.00000000	     61.75399519	    -17.69866618	     27.09099750	     28.81994934	     88.19116854	      0.00000000	      0.00000000
      8.83000000	     27.71929792	      1.55810313	    179.53194194	      0.39196744	      0.77855330	     -0.58610557	     83.44291404	     -9.22649495	     -0.70823213	     71.76824235	      1.25259213	     19.84361589	      0.00000000	      0.00000000	     84.47744942	    -14.58603869	     -2.61818996	     74.12743758	      1.29376785	     14.11794696	      0.00000000	      0.00000000	    -57.66484696	      0.45785625	     -1.36616680	     67.19627581	     -8.96730810	     24.65874538	     19.21239264	     88.22669234	      0.00000000	      0.00000000	     61.72441481	    -17.68169531	     27.09352982	     28.77492492	     88.19692111	      0.00000000	      0.00000000
      8.83500000	     27.74111509	      1.55509314	    179.55168651	      0.39203747	      0.77876494	     -0.58589435	     83.43303503	     -9.28682878	     -0.75474679	     71.70882663	      1.25155513	     19.83088334	      0.00000000	      0.00000000	     84.46678786	    -14.52025257	     -2.60711317	     74.07060259	      1.29277589	     14.11893610	      0.00000000	      0.00000000	    -57.62276964	      0.50791072	     -1.35592461	     67.18952171	     -8.98559638	     24.67586041	     19.18041720	     88.22549971	      0.00000000	      0.00000000	     61.73566360	    -17.62929287	     27.08210941	     28.74052807	     88.18982632	      0.00000000	      0.00000000
      8.84000000	     27.75514503	      1.54634010	    179.55576032	      0.39214604	      0.77895121	     -0.58575824	     83.42504295	     -9.32568188	     -0.78876883	     71.65732146	      1.25065619	     19.78773464	      0.00000000	      0.00000000	     84.45555478	    -14.44401341	     -2.53864346	     74.01488879	      1.29180350	     14.11955341	      0.00000000	      0.00000000	    -57.58527100	      0.53490225	     -1.35185628	     67.17529332	     -8.97852363	     24.70344989	     19.15733068	     88.22684483	      0.00000000	      0.00000000	     61.72514457	    -17.57391627	     27.07207387	     28.68712677	     88.18398278	      0.00000000	      0.00000000
      8.84500000	     27.78351755	      1.55069807	    179.57908783	      0.39225462	      0.77923116	     -0.58545190	     83.41149611	     -9.41281320	     -0.87461442	     71.58223304	      1.24934565	     19.72954628	      0.00000000	      0.00000000	     84.43643606	    -14.28633886	     -2.38596353	     73.92215200	      1.29018494	     14.08939459	      0.00000000	      0.00000000	    -57.53453556	      0.59411226	     -1.36889239	     67.17074242	     -8.96877939	     24.76794406	     19.12775055	     88.23098147	      0.00000000	      0.00000000	     61.71309521	    -17.50546405	     27.02656752	     28.60794306	     88.17942417	      0.00000000	      0.00000000
